<svg width="126" height="76" viewBox="0 0 126 76" fill="none" xmlns="http://www.w3.org/2000/svg">
<g filter="url(#filter0_d_135_60)">
<circle cx="34" cy="38" r="30" fill="#D9D9D9"/>
</g>
<path d="M31.856 55C30 55 28.336 54.568 26.864 53.704C25.392 52.808 24.224 51.624 23.36 50.152C22.528 48.648 22.112 47 22.112 45.208C22.112 43.8 22.432 42.472 23.072 41.224C23.744 39.944 24.672 38.872 25.856 38.008C24.672 37.144 23.76 36.104 23.12 34.888C22.48 33.64 22.16 32.344 22.16 31C22.16 29.208 22.576 27.592 23.408 26.152C24.272 24.712 25.424 23.56 26.864 22.696C28.304 21.832 29.904 21.4 31.664 21.4H45.2V26.488H32.288C31.488 26.488 30.752 26.696 30.08 27.112C29.408 27.496 28.864 28.024 28.448 28.696C28.064 29.368 27.872 30.136 27.872 31C27.872 31.768 28.08 32.488 28.496 33.16C28.912 33.832 29.456 34.376 30.128 34.792C30.8 35.176 31.552 35.368 32.384 35.368H43.52V40.456H32.672C31.712 40.456 30.864 40.68 30.128 41.128C29.392 41.576 28.816 42.168 28.4 42.904C28.016 43.608 27.824 44.392 27.824 45.256C27.824 46.088 28.016 46.872 28.4 47.608C28.816 48.312 29.376 48.888 30.08 49.336C30.816 49.752 31.648 49.96 32.576 49.96H45.2V55H31.856Z" fill="#343434"/>
<path d="M81.824 55.576C80.544 55.576 79.392 55.224 78.368 54.52C77.376 53.816 76.656 52.872 76.208 51.688L68.72 30.52H74.72L81.104 49.528C81.2 49.752 81.312 49.912 81.44 50.008C81.568 50.104 81.712 50.152 81.872 50.152C82.032 50.152 82.176 50.104 82.304 50.008C82.464 49.912 82.576 49.752 82.64 49.528L89.072 30.52H94.976L87.44 51.688C87.024 52.872 86.304 53.816 85.28 54.52C84.256 55.224 83.104 55.576 81.824 55.576ZM108.014 55.576C105.678 55.576 103.662 55 101.966 53.848C100.27 52.696 98.9576 51.16 98.0296 49.24C97.1336 47.288 96.6856 45.144 96.6856 42.808C96.6856 40.376 97.1976 38.2 98.2216 36.28C99.2776 34.328 100.766 32.792 102.686 31.672C104.638 30.52 106.958 29.944 109.646 29.944C112.302 29.944 114.558 30.52 116.414 31.672C118.302 32.792 119.742 34.328 120.734 36.28C121.758 38.2 122.27 40.344 122.27 42.712V55H116.75V50.44H116.654C116.174 51.336 115.55 52.184 114.782 52.984C114.014 53.752 113.07 54.376 111.95 54.856C110.83 55.336 109.518 55.576 108.014 55.576ZM109.502 50.872C110.942 50.872 112.19 50.52 113.246 49.816C114.334 49.08 115.182 48.104 115.79 46.888C116.398 45.64 116.686 44.248 116.654 42.712C116.654 41.176 116.366 39.816 115.79 38.632C115.214 37.416 114.398 36.456 113.342 35.752C112.286 35.016 111.022 34.648 109.55 34.648C108.014 34.648 106.702 35.016 105.614 35.752C104.526 36.456 103.694 37.416 103.118 38.632C102.542 39.848 102.254 41.224 102.254 42.76C102.254 44.264 102.542 45.64 103.118 46.888C103.694 48.104 104.51 49.08 105.566 49.816C106.654 50.52 107.966 50.872 109.502 50.872Z" fill="#686868"/>
<defs>
<filter id="filter0_d_135_60" x="0" y="8" width="68" height="68" filterUnits="userSpaceOnUse" color-interpolation-filters="sRGB">
<feFlood flood-opacity="0" result="BackgroundImageFix"/>
<feColorMatrix in="SourceAlpha" type="matrix" values="0 0 0 0 0 0 0 0 0 0 0 0 0 0 0 0 0 0 127 0" result="hardAlpha"/>
<feOffset dy="4"/>
<feGaussianBlur stdDeviation="2"/>
<feComposite in2="hardAlpha" operator="out"/>
<feColorMatrix type="matrix" values="0 0 0 0 0 0 0 0 0 0 0 0 0 0 0 0 0 0 0.25 0"/>
<feBlend mode="normal" in2="BackgroundImageFix" result="effect1_dropShadow_135_60"/>
<feBlend mode="normal" in="SourceGraphic" in2="effect1_dropShadow_135_60" result="shape"/>
</filter>
</defs>
</svg>
